<?xml version="1.0" encoding="utf-8"?>
<!-- Svg Vector Icons : http://www.sfont.cn -->
<!DOCTYPE svg PUBLIC "-//W3C//DTD SVG 1.1//EN" "http://www.w3.org/Graphics/SVG/1.1/DTD/svg11.dtd">
<svg version="1.1" xmlns="http://www.w3.org/2000/svg" xmlns:xlink="http://www.w3.org/1999/xlink" x="0px" y="0px" viewBox="0 0 1000 1000" enable-background="new 0 0 1000 1000" xml:space="preserve">
<metadata> Svg Vector Icons : http://www.sfont.cn </metadata>
<g><path d="M843,794H157c-28.2,0-49-37.3-49-66.8c0-29.5,22.9-53.5,51.1-53.5S206,676.5,206,647V304c0-137.8,111.1-240.5,242.9-240.5c0-29.5,22.9-53.5,51.1-53.5s51.1,23.9,51.1,53.5C682.9,63.5,794,166.2,794,304v343c0,29.5,18.6,26.7,46.9,26.7c28.2,0,51.1,23.9,51.1,53.5C892,756.7,871.2,794,843,794z M500,990c-101.1,0-147-88-147-147h294C647,902,597.1,990,500,990z"/></g>
</svg>