<?xml version="1.0" standalone="no"?><!DOCTYPE svg PUBLIC "-//W3C//DTD SVG 1.1//EN" "http://www.w3.org/Graphics/SVG/1.1/DTD/svg11.dtd"><svg t="1547643025532" class="icon" style="" viewBox="0 0 1024 1024" version="1.1" xmlns="http://www.w3.org/2000/svg" p-id="3802" xmlns:xlink="http://www.w3.org/1999/xlink" width="38" height="38"><defs><style type="text/css"></style></defs><path d="M959.856 352H400.416c-0.128 30.16-0.224 67.44-0.32 111.84l146.352-64.048c55.776-27.584 105.232-19.152 136.176 27.264 30.336 45.488 22.224 94.16-20 136.368a32 32 0 0 1-7.296 5.472l-13.04 7.104h316.192c0.64 0 1.12-74.672 1.376-224z m0.112-64L960 256c0 0.224-186.16 0.224-558.48 0-0.272 0-0.496 10.672-0.704 32h559.152z m-240.16 352H656v117.12c19.136 1.472 32.416-2.8 41.376-11.744 12.368-12.368 21.088-48.048 22.432-105.376z m64.032 0c-1.52 73.744-13.952 123.36-41.216 150.624-27.968 27.968-67.088 36.32-114.272 27.12C611.696 827.52 588.224 832 560 832c-29.12 0-53.184-4.768-69.936-15.2-15.28 9.92-34.848 15.2-58.064 15.2-45.136 0-76.48-19.952-89.392-55.28A274.88 274.88 0 0 1 239.52 796.8H32.16a32 32 0 0 1 0-64H239.52a210.88 210.88 0 0 0 104.624-27.776l21.28-12.16A161.28 161.28 0 0 0 414.4 649.6a216.08 216.08 0 0 1 69.392-60.048l136.64-74.528c18.944-20.144 20.672-34.88 8.944-52.48-11.584-17.376-25.824-19.744-55.072-5.12l-257.472 112.688a32 32 0 0 1-25.664-58.624L336 491.872V304.608c-26.288 2.128-45.072 9.712-57.376 22.016l-2.144 1.952-167.408 139.52A120.384 120.384 0 0 1 32 496a32 32 0 0 1 0-64c13.184 0 25.968-4.624 36.096-13.072l166.4-138.656c25.264-24.64 60.16-37.648 103.472-39.92C345.12 212.576 370.88 192 401.52 192h556.96C994.656 192 1024 220.64 1024 256v320c0 35.36-29.344 64-65.52 64H783.84zM592 640h-64v124.128c5.936 2.304 16.768 3.872 32 3.872s26.064-1.568 32-3.872V640z m-128 50.112a225.28 225.28 0 0 1-63.44 56.32C402.64 763.024 410.912 768 432 768c24.992 0 32-7.008 32-32v-45.888z" fill="#ffffff" p-id="3803"></path></svg>