<?xml version="1.0" standalone="no"?><!DOCTYPE svg PUBLIC "-//W3C//DTD SVG 1.1//EN" "http://www.w3.org/Graphics/SVG/1.1/DTD/svg11.dtd"><svg t="1548341777287" class="icon" style="" viewBox="0 0 1024 1024" version="1.1" xmlns="http://www.w3.org/2000/svg" p-id="8682" xmlns:xlink="http://www.w3.org/1999/xlink" width="38" height="38"><defs><style type="text/css"></style></defs><path d="M409.335846 469.608973H60.273127A60.342037 60.342037 0 0 1 0 409.335846V60.273127A60.342037 60.342037 0 0 1 60.273127 0h349.062719a60.342037 60.342037 0 0 1 60.273127 60.273127v349.062719a60.342037 60.342037 0 0 1-60.273127 60.273127zM60.273127 45.939883A14.528488 14.528488 0 0 0 45.939883 60.273127v349.062719a14.528488 14.528488 0 0 0 14.333244 14.333243h349.062719a14.528488 14.528488 0 0 0 14.333243-14.333243V60.273127A14.528488 14.528488 0 0 0 409.335846 45.939883zM964.186272 469.608973H615.123553a60.342037 60.342037 0 0 1-60.273127-60.273127V60.273127A60.342037 60.342037 0 0 1 615.123553 0h349.062719A60.342037 60.342037 0 0 1 1024.459399 60.273127v349.062719a60.342037 60.342037 0 0 1-60.273127 60.273127zM615.123553 45.939883a14.517003 14.517003 0 0 0-14.333243 14.333244v349.062719a14.517003 14.517003 0 0 0 14.333243 14.333243h349.062719A14.528488 14.528488 0 0 0 978.519515 409.335846V60.273127A14.528488 14.528488 0 0 0 964.186272 45.939883zM409.335846 1024H60.273127A60.342037 60.342037 0 0 1 0 963.726873V614.664154a60.342037 60.342037 0 0 1 60.273127-60.273127h349.062719a60.342037 60.342037 0 0 1 60.273127 60.273127v349.062719a60.342037 60.342037 0 0 1-60.273127 60.273127zM60.273127 600.330911A14.528488 14.528488 0 0 0 45.939883 614.664154v349.062719a14.517003 14.517003 0 0 0 14.333244 14.333244h349.062719a14.517003 14.517003 0 0 0 14.333243-14.333244V614.664154a14.528488 14.528488 0 0 0-14.333243-14.333243zM964.186272 1024H615.123553a60.342037 60.342037 0 0 1-60.273127-60.273127V614.664154a60.342037 60.342037 0 0 1 60.273127-60.273127h349.062719A60.342037 60.342037 0 0 1 1024.459399 614.664154v349.062719a60.342037 60.342037 0 0 1-60.273127 60.273127zM615.123553 600.330911a14.528488 14.528488 0 0 0-14.333243 14.333243v349.062719a14.517003 14.517003 0 0 0 14.333243 14.333244h349.062719A14.528488 14.528488 0 0 0 978.519515 963.726873V614.664154a14.528488 14.528488 0 0 0-14.333243-14.333243z" fill="#ffffff" p-id="8683"></path></svg>