<?xml version="1.0" standalone="no"?><!DOCTYPE svg PUBLIC "-//W3C//DTD SVG 1.1//EN" "http://www.w3.org/Graphics/SVG/1.1/DTD/svg11.dtd"><svg class="icon" width="38px" height="38.00px" viewBox="0 0 1024 1024" version="1.1" xmlns="http://www.w3.org/2000/svg"><path fill="#ffffff" d="M182.857143 73.142857a73.142857 73.142857 0 0 0-73.142857 73.142857v182.198857a73.142857 73.142857 0 0 0 73.142857 73.142858h146.285714a73.142857 73.142857 0 0 0 73.142857-73.142858V146.285714a73.142857 73.142857 0 0 0-73.142857-73.142857H182.857143z m0-73.142857h146.285714a146.285714 146.285714 0 0 1 146.285714 146.285714v182.198857a146.285714 146.285714 0 0 1-146.285714 146.285715H182.857143a146.285714 146.285714 0 0 1-146.285714-146.285715V146.285714a146.285714 146.285714 0 0 1 146.285714-146.285714z m0 625.298286a73.142857 73.142857 0 0 0-73.142857 73.142857V877.714286a73.142857 73.142857 0 0 0 73.142857 73.142857h146.285714a73.142857 73.142857 0 0 0 73.142857-73.142857V698.441143a73.142857 73.142857 0 0 0-73.142857-73.142857H182.857143z m0-73.142857h146.285714a146.285714 146.285714 0 0 1 146.285714 146.285714V877.714286a146.285714 146.285714 0 0 1-146.285714 146.285714H182.857143a146.285714 146.285714 0 0 1-146.285714-146.285714V698.441143a146.285714 146.285714 0 0 1 146.285714-146.285714z m512 213.357714a73.142857 73.142857 0 0 0-73.142857 73.142857V877.714286a73.142857 73.142857 0 0 0 73.142857 73.142857h146.285714a73.142857 73.142857 0 0 0 73.142857-73.142857v-39.058286a73.142857 73.142857 0 0 0-73.142857-73.142857H694.857143z m0-73.142857h146.285714a146.285714 146.285714 0 0 1 146.285714 146.285714V877.714286a146.285714 146.285714 0 0 1-146.285714 146.285714H694.857143a146.285714 146.285714 0 0 1-146.285714-146.285714v-39.058286a146.285714 146.285714 0 0 1 146.285714-146.285714zM694.857143 73.142857a73.142857 73.142857 0 0 0-73.142857 73.142857v327.68a73.142857 73.142857 0 0 0 73.142857 73.142857h146.285714a73.142857 73.142857 0 0 0 73.142857-73.142857V146.285714a73.142857 73.142857 0 0 0-73.142857-73.142857H694.857143z m0-73.142857h146.285714a146.285714 146.285714 0 0 1 146.285714 146.285714v327.68a146.285714 146.285714 0 0 1-146.285714 146.285715H694.857143a146.285714 146.285714 0 0 1-146.285714-146.285715V146.285714a146.285714 146.285714 0 0 1 146.285714-146.285714z" /></svg>