<?xml version="1.0" standalone="no"?><!DOCTYPE svg PUBLIC "-//W3C//DTD SVG 1.1//EN" "http://www.w3.org/Graphics/SVG/1.1/DTD/svg11.dtd"><svg class="icon" width="38px" height="37.96px" viewBox="0 0 1025 1024" version="1.1" xmlns="http://www.w3.org/2000/svg"><path fill="#ffffff" d="M357.376 475.648H124.928c-64 0-116.224-52.224-116.224-116.224V126.976c0-64 52.224-116.224 116.224-116.224h232.448c64 0 116.224 52.224 116.224 116.224v232.448c0 64.512-52.224 116.224-116.224 116.224z m0 542.72H124.928c-64 0-116.224-52.224-116.224-116.224v-232.448c0-64 52.224-116.224 116.224-116.224h232.448c64 0 116.224 52.224 116.224 116.224v232.448c0 64-52.224 116.224-116.224 116.224zM978.944 190.464h-345.6c-24.064 0-43.52-19.456-43.52-43.52s19.456-43.52 43.52-43.52h345.6c24.064 0 43.52 19.456 43.52 43.52s-19.456 43.52-43.52 43.52zM978.944 375.296h-345.6c-24.064 0-43.52-19.456-43.52-43.52s19.456-43.52 43.52-43.52h345.6c24.064 0 43.52 19.456 43.52 43.52s-19.456 43.52-43.52 43.52zM978.944 741.376h-345.6c-24.064 0-43.52-19.456-43.52-43.52s19.456-43.52 43.52-43.52h345.6c24.064 0 43.52 19.456 43.52 43.52s-19.456 43.52-43.52 43.52zM978.944 926.72h-345.6c-24.064 0-43.52-19.456-43.52-43.52s19.456-43.52 43.52-43.52h345.6c24.064 0 43.52 19.456 43.52 43.52s-19.456 43.52-43.52 43.52z"  /></svg>