<?xml version="1.0" standalone="no"?><!DOCTYPE svg PUBLIC "-//W3C//DTD SVG 1.1//EN" "http://www.w3.org/Graphics/SVG/1.1/DTD/svg11.dtd"><svg t="1547519858216" class="icon" style="" viewBox="0 0 1024 1024" version="1.1" xmlns="http://www.w3.org/2000/svg" p-id="3822" xmlns:xlink="http://www.w3.org/1999/xlink" width="38" height="38"><defs><style type="text/css"></style></defs><path d="M512 579.49175c-77.393686 0-150.15587-30.139762-204.880991-84.864884s-84.864884-127.486305-84.864884-204.880991 30.138762-150.15587 84.864884-204.880991C361.84413 30.138762 434.606314 0 512 0s150.15587 30.138762 204.880991 84.864884c54.725121 54.725121 84.864884 127.487305 84.864884 204.880991 0 77.393686-30.139762 150.15487-84.864884 204.880991S589.393686 579.49175 512 579.49175z m0-539.496046c-137.713207 0-249.750171 112.037965-249.750171 249.750171S374.286793 539.496046 512 539.496046s249.750171-112.036965 249.750171-249.750171S649.713207 39.995704 512 39.995704z" fill="#ffffff" p-id="3823"></path><path d="M955.472361 1022.952113c-11.044814 0-19.997852-8.953038-19.997851-19.997852 0-233.496917-189.969593-423.461511-423.47551-423.461511-233.503917 0-423.47251 189.963594-423.47251 423.461511 0 11.044814-8.953038 19.997852-19.997851 19.997852-11.043814 0-19.997852-8.953038-19.997852-19.997852 0-62.55828 12.256683-123.25676 36.430086-180.406621 23.344492-55.191071 56.759903-104.753747 99.317331-147.309175 42.558428-42.556429 92.121104-75.970839 147.313176-99.313332C388.74324 551.75373 449.44072 539.497046 512 539.497046s123.257759 12.256683 180.41062 36.428087c55.192071 23.343492 104.755747 56.757903 147.313175 99.313332s75.972839 92.118105 99.317331 147.309175c24.173403 57.149861 36.430087 117.847341 36.430087 180.406621-0.001 11.044814-8.955038 19.997852-19.998852 19.997852z" fill="#ffffff" p-id="3824"></path></svg>