<?xml version="1.0" standalone="no"?><!DOCTYPE svg PUBLIC "-//W3C//DTD SVG 1.1//EN" "http://www.w3.org/Graphics/SVG/1.1/DTD/svg11.dtd"><svg t="1547519829012" class="icon" style="" viewBox="0 0 1024 1024" version="1.1" xmlns="http://www.w3.org/2000/svg" p-id="3007" xmlns:xlink="http://www.w3.org/1999/xlink" width="32" height="32"><defs><style type="text/css"></style></defs><path d="M1003.49 480.587l-160.762-160.762c-8.345-8.345-19.523-12.912-31.333-12.912-11.809 0-22.989 4.566-31.333 12.912-8.345 8.345-12.912 19.523-12.912 31.333 0 11.809 4.566 22.989 12.912 31.333l85.499 85.499h-446.854c-24.406 0-44.244 19.839-44.244 44.244s19.839 44.244 44.244 44.244h447.012l-85.499 85.499c-8.345 8.345-12.912 19.523-12.912 31.333s4.566 22.989 12.912 31.333c8.345 8.345 19.523 12.912 31.333 12.912 11.809 0 22.989-4.566 31.333-12.912l160.603-161.075c8.345-8.345 13.069-19.682 12.912-31.491 0.158-11.966-4.409-23.146-12.912-31.491z" fill="#ffffff" p-id="3008"></path><path d="M649.22 628.278c-34.955 0-44.244 34.797-44.244 53.062v127.38c0 34.797-21.571 62.194-49.125 62.194h-407.649c-27.869 0-50.542-27.869-50.542-62.194v-591.713c0-34.325 22.675-62.194 50.542-62.194h407.649c27.555 0 49.125 27.397 49.125 62.194v142.496l0.158 0.473c2.046 10.706 10.393 35.901 44.086 35.901 40.308 0 45.033-35.742 45.504-43.3l0.314-0.473v-135.095c0-37.631-12.282-73.531-34.325-100.929-26.294-32.592-64.557-51.33-104.863-51.33h-407.649c-39.835 0-77.94 18.265-104.549 50.228-23.302 27.712-36.058 63.927-36.058 102.030v591.713c0 38.103 12.754 74.318 35.901 102.030 26.609 31.964 64.715 50.228 104.549 50.228h407.649c40.308 0 78.412-18.737 104.863-51.33 22.202-27.397 34.325-63.297 34.325-100.929v-135.568c-0.473-15.587-10.864-44.874-45.663-44.874z" fill="#ffffff" p-id="3009"></path></svg>